<svg width="1200" height="630" viewBox="0 0 1200 630" fill="none" xmlns="http://www.w3.org/2000/svg">
  <rect width="1200" height="630" fill="#F6F3EE"/>
  <rect x="36" y="36" width="1128" height="558" rx="36" fill="#FFF9F1"/>
  <text x="86" y="126" fill="#8A572D" font-family="Arial, sans-serif" font-size="24" font-weight="700" letter-spacing="2">COMPRESS PDF</text>
  <text x="86" y="208" fill="#142028" font-family="Georgia, serif" font-size="68" font-weight="700">Compress PDFs</text>
  <text x="86" y="280" fill="#142028" font-family="Georgia, serif" font-size="68" font-weight="700">before sending</text>
  <text x="86" y="352" fill="#142028" font-family="Georgia, serif" font-size="68" font-weight="700">or archiving them</text>
  <text x="86" y="420" fill="#52606B" font-family="Arial, sans-serif" font-size="28">Reduce file size in one local workflow before email, upload,</text>
  <text x="86" y="458" fill="#52606B" font-family="Arial, sans-serif" font-size="28">or archive handoff.</text>
  <rect x="748" y="88" width="342" height="454" rx="30" fill="#142028"/>
  <rect x="784" y="126" width="120" height="38" rx="19" fill="#F3C992"/>
  <rect x="922" y="126" width="130" height="38" rx="19" fill="#D9EBE1"/>
  <text x="816" y="151" fill="#6A431F" font-family="Arial, sans-serif" font-size="15" font-weight="700">SOURCE</text>
  <text x="960" y="151" fill="#244153" font-family="Arial, sans-serif" font-size="15" font-weight="700">OUTPUT</text>
  <rect x="784" y="196" width="108" height="204" rx="18" fill="#203039"/>
  <rect x="944" y="248" width="64" height="14" rx="7" fill="#F3C992"/>
  <rect x="944" y="278" width="120" height="14" rx="7" fill="#D9EBE1"/>
  <rect x="944" y="308" width="96" height="14" rx="7" fill="#D9EBE1"/>
  <rect x="944" y="338" width="84" height="14" rx="7" fill="#D9EBE1"/>
  <rect x="978" y="384" width="86" height="40" rx="20" fill="#D9EBE1"/>
  <text x="994" y="409" fill="#244153" font-family="Arial, sans-serif" font-size="15" font-weight="700">SMALLER</text>
</svg>
