<svg width="1200" height="630" viewBox="0 0 1200 630" fill="none" xmlns="http://www.w3.org/2000/svg">
  <rect width="1200" height="630" fill="#F6F3EE"/>
  <rect x="36" y="36" width="1128" height="558" rx="36" fill="url(#bg)"/>
  <rect x="72" y="76" width="468" height="478" rx="28" fill="#FFFCF8" fill-opacity="0.92"/>
  <rect x="582" y="76" width="546" height="478" rx="28" fill="#142028"/>
  <text x="112" y="156" fill="#8A572D" font-family="Arial, sans-serif" font-size="24" font-weight="700" letter-spacing="2">LOCALPDF</text>
  <text x="112" y="232" fill="#142028" font-family="Georgia, serif" font-size="62" font-weight="700">Private PDF editing</text>
  <text x="112" y="300" fill="#142028" font-family="Georgia, serif" font-size="62" font-weight="700">that stays on</text>
  <text x="112" y="368" fill="#142028" font-family="Georgia, serif" font-size="62" font-weight="700">your device</text>
  <text x="112" y="436" fill="#52606B" font-family="Arial, sans-serif" font-size="26">Edit, merge, OCR, compress, sign, split, and convert</text>
  <text x="112" y="474" fill="#52606B" font-family="Arial, sans-serif" font-size="26">without turning every document into an upload-first workflow.</text>
  <rect x="112" y="506" width="206" height="28" rx="14" fill="#D9EBE1"/>
  <rect x="334" y="506" width="256" height="28" rx="14" fill="#F3C992"/>
  <text x="626" y="142" fill="#F3C992" font-family="Arial, sans-serif" font-size="22" font-weight="700" letter-spacing="1.5">WORKSPACE FLOW</text>
  <rect x="626" y="176" width="458" height="78" rx="20" fill="#203039"/>
  <text x="654" y="223" fill="#F9F5EE" font-family="Arial, sans-serif" font-size="28" font-weight="700">Edit, Merge, OCR, Convert</text>
  <rect x="626" y="278" width="148" height="198" rx="18" fill="#203039"/>
  <rect x="790" y="278" width="294" height="198" rx="18" fill="#FFFCF8"/>
  <rect x="650" y="304" width="100" height="28" rx="14" fill="#D9EBE1"/>
  <rect x="650" y="346" width="80" height="28" rx="14" fill="#D9EBE1"/>
  <rect x="650" y="388" width="92" height="28" rx="14" fill="#D9EBE1"/>
  <rect x="650" y="430" width="84" height="28" rx="14" fill="#D9EBE1"/>
  <rect x="818" y="306" width="124" height="22" rx="11" fill="#D9EBE1"/>
  <rect x="958" y="306" width="112" height="22" rx="11" fill="#F3C992"/>
  <rect x="818" y="350" width="218" height="14" rx="7" fill="#D8DDE0"/>
  <rect x="818" y="378" width="174" height="14" rx="7" fill="#D8DDE0"/>
  <rect x="818" y="406" width="128" height="14" rx="7" fill="#D8DDE0"/>
  <rect x="818" y="438" width="112" height="20" rx="10" fill="#142028"/>
  <text x="844" y="452" fill="#F9F5EE" font-family="Arial, sans-serif" font-size="13" font-weight="700">READY TO EXPORT</text>
  <defs>
    <linearGradient id="bg" x1="600" y1="36" x2="600" y2="594" gradientUnits="userSpaceOnUse">
      <stop stop-color="#FFF8EE"/>
      <stop offset="1" stop-color="#F1EDE6"/>
    </linearGradient>
  </defs>
</svg>
