<svg width="1200" height="630" viewBox="0 0 1200 630" fill="none" xmlns="http://www.w3.org/2000/svg">
  <rect width="1200" height="630" fill="#F6F3EE"/>
  <rect x="36" y="36" width="1128" height="558" rx="36" fill="#FFF9F1"/>
  <text x="86" y="126" fill="#8A572D" font-family="Arial, sans-serif" font-size="24" font-weight="700" letter-spacing="2">OCR PDF</text>
  <text x="86" y="208" fill="#142028" font-family="Georgia, serif" font-size="70" font-weight="700">Run OCR locally</text>
  <text x="86" y="280" fill="#142028" font-family="Georgia, serif" font-size="70" font-weight="700">for searchable</text>
  <text x="86" y="352" fill="#142028" font-family="Georgia, serif" font-size="70" font-weight="700">PDF text</text>
  <text x="86" y="420" fill="#52606B" font-family="Arial, sans-serif" font-size="28">Turn scanned PDFs into usable searchable documents</text>
  <text x="86" y="458" fill="#52606B" font-family="Arial, sans-serif" font-size="28">without sending them away first.</text>
  <rect x="742" y="92" width="348" height="446" rx="30" fill="#142028"/>
  <rect x="778" y="130" width="280" height="150" rx="20" fill="#FFFCF8"/>
  <rect x="804" y="162" width="92" height="92" rx="14" fill="#D9EBE1"/>
  <rect x="920" y="170" width="104" height="12" rx="6" fill="#D8DDE0"/>
  <rect x="920" y="194" width="84" height="12" rx="6" fill="#D8DDE0"/>
  <rect x="920" y="218" width="70" height="12" rx="6" fill="#F3C992"/>
  <rect x="778" y="314" width="280" height="96" rx="20" fill="#203039"/>
  <rect x="806" y="344" width="190" height="14" rx="7" fill="#D9EBE1"/>
  <rect x="806" y="372" width="150" height="14" rx="7" fill="#D9EBE1"/>
  <rect x="834" y="442" width="224" height="42" rx="21" fill="#D9EBE1"/>
  <text x="864" y="468" fill="#244153" font-family="Arial, sans-serif" font-size="16" font-weight="700">EXPORT SEARCHABLE PDF</text>
</svg>
